<?xml version="1.0" encoding="UTF-8" standalone="no"?>
<!-- Created with Inkscape (http://www.inkscape.org/) -->

<svg
   xmlns:dc="http://purl.org/dc/elements/1.1/"
   xmlns:cc="http://creativecommons.org/ns#"
   xmlns:rdf="http://www.w3.org/1999/02/22-rdf-syntax-ns#"
   xmlns:svg="http://www.w3.org/2000/svg"
   xmlns="http://www.w3.org/2000/svg"
   xmlns:sodipodi="http://sodipodi.sourceforge.net/DTD/sodipodi-0.dtd"
   xmlns:inkscape="http://www.inkscape.org/namespaces/inkscape"
   width="300"
   height="300"
   id="svg2"
   version="1.1"
   inkscape:version="0.47 r22583"
   sodipodi:docname="sailboat.svg">
  <defs
     id="defs4"><inkscape:perspective
   sodipodi:type="inkscape:persp3d"
   inkscape:vp_x="0 : 526.18109 : 1"
   inkscape:vp_y="0 : 1000 : 0"
   inkscape:vp_z="744.09448 : 526.18109 : 1"
   inkscape:persp3d-origin="372.04724 : 350.78739 : 1"
   id="perspective10" />
<inkscape:perspective
   id="perspective3542"
   inkscape:persp3d-origin="0.5 : 0.33333333 : 1"
   inkscape:vp_z="1 : 0.5 : 1"
   inkscape:vp_y="0 : 1000 : 0"
   inkscape:vp_x="0 : 0.5 : 1"
   sodipodi:type="inkscape:persp3d" />
<inkscape:perspective
   id="perspective4335"
   inkscape:persp3d-origin="0.5 : 0.33333333 : 1"
   inkscape:vp_z="1 : 0.5 : 1"
   inkscape:vp_y="0 : 1000 : 0"
   inkscape:vp_x="0 : 0.5 : 1"
   sodipodi:type="inkscape:persp3d" />
<inkscape:perspective
   id="perspective3630"
   inkscape:persp3d-origin="0.5 : 0.33333333 : 1"
   inkscape:vp_z="1 : 0.5 : 1"
   inkscape:vp_y="0 : 1000 : 0"
   inkscape:vp_x="0 : 0.5 : 1"
   sodipodi:type="inkscape:persp3d" />
<inkscape:perspective
   id="perspective3898"
   inkscape:persp3d-origin="0.5 : 0.33333333 : 1"
   inkscape:vp_z="1 : 0.5 : 1"
   inkscape:vp_y="0 : 1000 : 0"
   inkscape:vp_x="0 : 0.5 : 1"
   sodipodi:type="inkscape:persp3d" />
<inkscape:perspective
   id="perspective4038"
   inkscape:persp3d-origin="143.2805 : 78.931 : 1"
   inkscape:vp_z="286.561 : 118.3965 : 1"
   inkscape:vp_y="0 : 1000 : 0"
   inkscape:vp_x="0 : 118.3965 : 1"
   sodipodi:type="inkscape:persp3d" />

	
	

		
		
		
	
			
			
			
			
			
		<inkscape:perspective
   id="perspective4164"
   inkscape:persp3d-origin="0.5 : 0.33333333 : 1"
   inkscape:vp_z="1 : 0.5 : 1"
   inkscape:vp_y="0 : 1000 : 0"
   inkscape:vp_x="0 : 0.5 : 1"
   sodipodi:type="inkscape:persp3d" />
<inkscape:perspective
   id="perspective4639"
   inkscape:persp3d-origin="0.5 : 0.33333333 : 1"
   inkscape:vp_z="1 : 0.5 : 1"
   inkscape:vp_y="0 : 1000 : 0"
   inkscape:vp_x="0 : 0.5 : 1"
   sodipodi:type="inkscape:persp3d" />
<inkscape:perspective
   sodipodi:type="inkscape:persp3d"
   inkscape:vp_x="0 : 0.5 : 1"
   inkscape:vp_y="0 : 1000 : 0"
   inkscape:vp_z="1 : 0.5 : 1"
   inkscape:persp3d-origin="0.5 : 0.33333333 : 1"
   id="perspective2906" />
<inkscape:perspective
   sodipodi:type="inkscape:persp3d"
   inkscape:vp_x="0 : 0.5 : 1"
   inkscape:vp_y="0 : 1000 : 0"
   inkscape:vp_z="1 : 0.5 : 1"
   inkscape:persp3d-origin="0.5 : 0.33333333 : 1"
   id="perspective2848" />
<inkscape:perspective
   sodipodi:type="inkscape:persp3d"
   inkscape:vp_x="0 : 526.18109 : 1"
   inkscape:vp_y="0 : 1000 : 0"
   inkscape:vp_z="744.09448 : 526.18109 : 1"
   inkscape:persp3d-origin="372.04724 : 350.78739 : 1"
   id="perspective10-2" />
<inkscape:perspective
   id="perspective2390-4"
   inkscape:persp3d-origin="372.04724 : 350.78739 : 1"
   inkscape:vp_z="744.09448 : 526.18109 : 1"
   inkscape:vp_y="0 : 1000 : 0"
   inkscape:vp_x="0 : 526.18109 : 1"
   sodipodi:type="inkscape:persp3d" />
<inkscape:perspective
   sodipodi:type="inkscape:persp3d"
   inkscape:vp_x="0 : 526.18109 : 1"
   inkscape:vp_y="0 : 1000 : 0"
   inkscape:vp_z="744.09448 : 526.18109 : 1"
   inkscape:persp3d-origin="372.04724 : 350.78739 : 1"
   id="perspective10-4" />
<inkscape:perspective
   id="perspective2390"
   inkscape:persp3d-origin="372.04724 : 350.78739 : 1"
   inkscape:vp_z="744.09448 : 526.18109 : 1"
   inkscape:vp_y="0 : 1000 : 0"
   inkscape:vp_x="0 : 526.18109 : 1"
   sodipodi:type="inkscape:persp3d" />
<inkscape:perspective
   id="perspective10-27"
   inkscape:persp3d-origin="372.04724 : 350.78739 : 1"
   inkscape:vp_z="744.09448 : 526.18109 : 1"
   inkscape:vp_y="0 : 1000 : 0"
   inkscape:vp_x="0 : 526.18109 : 1"
   sodipodi:type="inkscape:persp3d" />
<inkscape:perspective
   id="perspective4915"
   inkscape:persp3d-origin="0.5 : 0.33333333 : 1"
   inkscape:vp_z="1 : 0.5 : 1"
   inkscape:vp_y="0 : 1000 : 0"
   inkscape:vp_x="0 : 0.5 : 1"
   sodipodi:type="inkscape:persp3d" />
</defs>
  <sodipodi:namedview
     id="base"
     pagecolor="#ffffff"
     bordercolor="#666666"
     borderopacity="1.0"
     inkscape:pageopacity="0.0"
     inkscape:pageshadow="2"
     inkscape:zoom="0.39292929"
     inkscape:cx="389.28374"
     inkscape:cy="385.45656"
     inkscape:document-units="px"
     inkscape:current-layer="g5558"
     showgrid="false"
     inkscape:window-width="1024"
     inkscape:window-height="538"
     inkscape:window-x="-8"
     inkscape:window-y="-8"
     inkscape:window-maximized="1"
     showguides="true"
     inkscape:guide-bbox="true" />
  <metadata
     id="metadata7">
    <rdf:RDF>
      <cc:Work
         rdf:about="">
        <dc:format>image/svg+xml</dc:format>
        <dc:type
           rdf:resource="http://purl.org/dc/dcmitype/StillImage" />
        <dc:title></dc:title>
      </cc:Work>
    </rdf:RDF>
  </metadata>
  <g
     inkscape:label="Layer 1"
     inkscape:groupmode="layer"
     id="layer1"
     transform="translate(0,-752.36218)"
     style="display:inline">
    <text
       xml:space="preserve"
       style="font-size:20px;font-style:normal;font-weight:normal;fill:#000000;fill-opacity:1;stroke:none;font-family:Plantagenet Cherokee;-inkscape-font-specification:Plantagenet Cherokee"
       x="1016.2135"
       y="733.42126"
       id="text3042"
       transform="translate(0,62.362183)"><tspan
         sodipodi:role="line"
         id="tspan3044"
         x="1016.2135"
         y="733.42126"></tspan></text>
    <g
       id="g5042"
       transform="matrix(0.92192684,0,0,0.92192684,39.40689,45.117636)">
      <g
         id="g5558"
         transform="matrix(0.94392926,0,0,0.94392926,14.850266,31.043852)"
         style="fill:#d5d5d5;fill-opacity:1">
        <path
           style="fill:#000000;fill-opacity:1;stroke:none"
           d="m 116.36661,838.02378 c -12.34951,0 -23.442002,5.26482 -31.237198,13.64695 l -121.77859,98.89196 c -10.532819,12.07739 -16.933043,27.87097 -16.933043,45.15471 0,37.9597 30.777472,68.7372 68.737249,68.7372 25.273556,0 47.36375,-13.6608 59.30427,-33.982 l 23.582509,-38.62119 43.183013,4.94847 -0.5025,1.12113 c -2.44614,7.05589 -3.78866,14.65049 -3.78866,22.53869 0,37.9597 30.77746,68.7372 68.73727,68.7372 37.06013,0 67.24888,-29.3551 68.65992,-66.0696 l 2.82212,-122.43587 c 0.16218,-1.5114 0.23199,-3.04607 0.23199,-4.60051 0,-0.92104 -0.0192,-1.83832 -0.0777,-2.74484 l 0.0382,-1.97168 -0.19313,-0.0386 c -2.36042,-21.34416 -20.47478,-37.96399 -42.44853,-37.96399 -17.05156,0 -31.74147,10.01947 -38.58259,24.47169 l -0.0768,0 -14.45877,31.35317 -28.26031,-7.26805 c 0.90322,-1.60279 1.75473,-3.22465 2.51281,-4.90982 2.07936,-5.02548 3.20884,-10.53754 3.20884,-16.31446 0,-23.57853 -19.10205,-42.68048 -42.68048,-42.68048 z m -11.94597,10.39951 -73.878957,79.17541 -30.92791417,2.82219 95.10327817,-78.47954 9.703593,-3.51806 z m 107.97709,17.51292 -22.07485,89.22699 -24.74232,11.482 40.6316,-95.41258 6.18557,-5.29641 z M 15.155028,940.7044 c 30.367749,0 55.012957,24.64525 55.012957,55.013 0,30.3678 -24.645208,54.9743 -55.012957,54.9743 -30.367848,0 -54.974324,-24.6065 -54.974324,-54.9743 0,-30.36775 24.606476,-55.013 54.974324,-55.013 z m 190.515902,24.74234 c 30.36771,0 55.01305,24.6452 55.01305,55.01296 0,30.3677 -24.64534,54.9743 -55.01305,54.9743 -30.36788,0 -54.97435,-24.6066 -54.97435,-54.9743 0,-30.36776 24.60647,-55.01296 54.97435,-55.01296 z m -155.41271,4.67784 c -4.87758,33.07292 -24.48204,58.04562 -49.2141008,59.30422 -6.5961632,0.3357 -13.0524412,-1.0063 -19.0592582,-3.8273 8.5566513,10.3049 21.7022421,16.5836 36.10834,15.8505 24.262821,-1.2347 42.9487,-21.897 41.713946,-46.15983 -0.48607,-9.55191 -4.005044,-18.22297 -9.548927,-25.16759 z m 190.51586,24.74232 c -4.87757,33.0729 -24.48203,58.0455 -49.2141,59.3041 -6.59616,0.3357 -13.05243,-1.0063 -19.05925,-3.8273 8.55665,10.3049 21.70224,16.5837 36.10833,15.8506 24.26282,-1.2348 42.94883,-21.897 41.71396,-46.1598 -0.48607,-9.5519 -4.00519,-18.223 -9.54894,-25.1676 z"
           id="path3066" />
      </g>
    </g>
    <text
       xml:space="preserve"
       style="font-size:20px;font-style:normal;font-weight:normal;fill:#000000;fill-opacity:1;stroke:none;font-family:Plantagenet Cherokee;-inkscape-font-specification:Plantagenet Cherokee"
       x="552.85712"
       y="748.57141"
       id="text4266"
       transform="translate(0,62.362183)"><tspan
         sodipodi:role="line"
         id="tspan4268"
         x="552.85712"
         y="748.57141" /></text>
  </g>
</svg>
